<?xml version="1.0" encoding="utf-8"?>
<!-- Generator: Adobe Illustrator 27.0.0, SVG Export Plug-In . SVG Version: 6.00 Build 0)  -->
<svg version="1.1" id="Layer_1" xmlns="http://www.w3.org/2000/svg" xmlns:xlink="http://www.w3.org/1999/xlink" x="0px" y="0px"
	 viewBox="0 0 299 89.3" style="enable-background:new 0 0 299 89.3;" xml:space="preserve">
<style type="text/css">
	.st0{fill:#FFFFFF;}
</style>
<g>
	<path class="st0" d="M46.9,0.6C23.6,0.6,4.6,18.5,2.8,41.3l23.7,9.8c2-1.4,4.4-2.2,7-2.2c0.2,0,0.5,0,0.7,0l10.5-15.3
		c0-0.1,0-0.1,0-0.2c0-9.2,7.5-16.7,16.7-16.7c9.2,0,16.7,7.5,16.7,16.7s-7.5,16.7-16.7,16.7c-0.1,0-0.3,0-0.4,0L46,60.8
		c0,0.2,0,0.4,0,0.6c0,6.9-5.6,12.5-12.5,12.5c-6.1,0-11.1-4.3-12.3-10.1l-17-7c5.2,18.6,22.3,32.2,42.6,32.2
		c24.4,0,44.2-19.8,44.2-44.2C91.1,20.4,71.3,0.6,46.9,0.6"/>
	<path class="st0" d="M30.5,67.7l-5.4-2.2c1,2,2.6,3.7,4.8,4.6c4.8,2,10.3-0.3,12.3-5.1c1-2.3,1-4.9,0-7.2c-1-2.3-2.8-4.1-5.1-5.1
		c-2.3-1-4.8-0.9-6.9-0.1l5.6,2.3c3.5,1.5,5.2,5.5,3.7,9C38.1,67.5,34,69.2,30.5,67.7"/>
	<path class="st0" d="M72.6,33.4c0-6.1-5-11.1-11.1-11.1c-6.1,0-11.1,5-11.1,11.1c0,6.1,5,11.1,11.1,11.1
		C67.6,44.5,72.6,39.6,72.6,33.4 M53.1,33.4c0-4.6,3.7-8.4,8.4-8.4s8.4,3.7,8.4,8.4s-3.7,8.3-8.4,8.3S53.1,38,53.1,33.4"/>
	<path class="st0" d="M138.3,30.9l-3,5.2c-2.3-1.6-5.4-2.6-8.1-2.6c-3.1,0-5,1.3-5,3.6c0,2.8,3.4,3.4,8.4,5.2
		c5.4,1.9,8.5,4.2,8.5,9.1c0,6.8-5.3,10.6-13,10.6c-3.7,0-8.3-1-11.7-3.1l2.2-5.8c2.8,1.5,6.2,2.4,9.2,2.4c4.1,0,6-1.5,6-3.7
		c0-2.5-2.9-3.3-7.7-4.9c-5.4-1.8-9.1-4.2-9.1-9.7c0-6.2,5-9.8,12.1-9.8C132.1,27.6,136.1,29.2,138.3,30.9"/>
	<polygon class="st0" points="161.5,34.2 161.5,61.5 154.5,61.5 154.5,34.2 144.4,34.2 144.4,28.2 171.6,28.2 171.6,34.2 	"/>
	<polygon class="st0" points="186.3,34.1 186.3,41.7 199.7,41.7 199.7,47.6 186.3,47.6 186.3,55.5 201.8,55.5 201.8,61.5 
		179.3,61.5 179.3,28.2 201.8,28.2 201.8,34.1 	"/>
	<path class="st0" d="M217.4,55l-2.2,6.5h-7.3l12.5-33.3h7l12.8,33.3h-7.6l-2.3-6.5L217.4,55L217.4,55z M223.8,36.1l-4.6,13.3h9.2
		L223.8,36.1z"/>
	<polygon class="st0" points="276.1,41.1 266.9,60.5 263,60.5 254,41.2 254,61.5 247.3,61.5 247.3,28.2 254,28.2 265.2,52.2 
		276,28.2 282.7,28.2 282.7,61.5 276.1,61.5 	"/>
	<path class="st0" d="M296.2,32.4c0,2.9-2.1,4.6-4.6,4.6c-2.5,0-4.6-1.8-4.6-4.6c0-2.9,2.2-4.6,4.6-4.6
		C294.1,27.7,296.2,29.5,296.2,32.4 M287.8,32.4c0,2.4,1.7,3.9,3.8,3.9c2.1,0,3.8-1.5,3.8-3.9c0-2.4-1.7-3.9-3.8-3.9
		C289.5,28.5,287.8,30,287.8,32.4 M291.7,30c1.2,0,1.6,0.6,1.6,1.3c0,0.6-0.4,1-0.8,1.3l1.1,2h-0.9l-0.9-1.8h-0.9v1.8h-0.7V30H291.7
		z M290.8,32.1h0.8c0.5,0,0.8-0.3,0.8-0.7c0-0.4-0.2-0.7-0.8-0.7h-0.8L290.8,32.1L290.8,32.1z"/>
</g>
</svg>
