<svg xmlns="http://www.w3.org/2000/svg" width="31.496" height="31.502" viewBox="0 0 31.496 31.502">
  <defs>
    <style>
      .cls-1 {
        fill: #fff;
      }
    </style>
  </defs>
  <path id="Icon_awesome-search" data-name="Icon awesome-search" class="cls-1" d="M31.068,27.235,24.934,21.1a1.475,1.475,0,0,0-1.046-.431h-1a12.79,12.79,0,1,0-2.215,2.215v1a1.475,1.475,0,0,0,.431,1.046l6.134,6.134a1.47,1.47,0,0,0,2.086,0l1.741-1.741a1.483,1.483,0,0,0,.006-2.092ZM12.8,20.671A7.875,7.875,0,1,1,20.671,12.8,7.87,7.87,0,0,1,12.8,20.671Z"/>
</svg>
